<svg id="svg" version="1.1" xmlns="http://www.w3.org/2000/svg" xmlns:xlink="http://www.w3.org/1999/xlink" width="400" height="400" viewBox="0, 0, 400,400"><g id="svgg"><path id="path0" d="M209.500 151.733 C 209.335 152.136,209.200 152.791,209.200 153.190 C 209.200 153.588,208.930 154.018,208.600 154.145 C 207.723 154.481,207.867 155.200,208.813 155.200 C 209.814 155.200,210.091 154.539,209.927 152.542 C 209.833 151.401,209.722 151.191,209.500 151.733 M211.743 157.086 C 210.568 157.234,210.114 158.800,211.247 158.800 C 211.927 158.800,211.593 159.548,210.800 159.800 C 210.360 159.940,210.000 160.308,210.000 160.619 C 210.000 160.930,209.545 161.299,208.989 161.438 C 207.679 161.767,207.254 162.617,207.359 164.692 C 207.447 166.415,207.126 166.800,205.601 166.800 C 205.158 166.800,204.716 167.237,204.488 167.900 C 204.111 168.993,204.105 168.988,203.618 167.221 C 203.186 165.656,203.208 165.383,203.803 164.948 C 204.521 164.423,204.299 163.600,203.441 163.600 C 202.747 163.600,202.400 183.384,202.400 223.007 C 202.400 240.771,202.225 255.635,201.980 258.642 C 201.564 263.747,201.957 271.153,202.773 273.600 C 202.957 274.150,203.342 275.410,203.629 276.400 C 206.463 286.174,215.278 295.162,226.400 299.618 C 228.686 300.534,228.933 300.609,234.200 301.974 C 243.917 304.494,254.438 303.674,264.200 299.636 C 268.147 298.003,270.322 296.972,276.400 293.854 C 286.575 288.633,290.958 286.502,294.200 285.196 C 296.618 284.223,298.737 283.461,299.800 283.183 C 300.460 283.011,301.990 282.603,303.200 282.278 C 309.602 280.558,316.906 280.463,320.911 282.046 C 325.917 284.026,329.421 284.863,329.137 284.011 C 328.781 282.942,320.508 280.035,314.800 278.974 C 302.995 276.778,293.618 279.163,273.000 289.604 C 255.304 298.565,248.601 300.775,239.062 300.793 C 225.531 300.818,213.769 289.426,210.165 272.804 C 209.703 270.678,209.642 266.370,209.824 249.004 C 209.947 237.342,209.897 213.130,209.714 195.200 C 209.488 173.061,209.513 162.496,209.791 162.276 C 210.016 162.097,213.215 162.026,216.900 162.117 C 220.585 162.208,223.600 162.219,223.600 162.142 C 223.600 161.669,220.616 157.971,219.806 157.440 C 218.858 156.820,215.155 156.657,211.743 157.086 M205.600 161.800 C 205.600 162.422,205.827 162.800,206.200 162.800 C 206.530 162.800,206.800 162.530,206.800 162.200 C 206.800 161.870,207.025 161.597,207.300 161.594 C 207.633 161.590,207.600 161.458,207.200 161.200 C 206.179 160.540,205.600 160.757,205.600 161.800 M193.100 178.549 C 192.715 179.804,192.400 181.365,192.400 182.016 C 192.400 182.667,192.220 183.200,192.000 183.200 C 191.780 183.200,191.600 183.541,191.600 183.957 C 191.600 184.374,191.315 184.824,190.967 184.957 C 190.007 185.326,188.723 185.247,188.978 184.836 C 189.363 184.213,188.730 183.141,188.117 183.377 C 187.662 183.551,187.591 183.353,187.786 182.463 C 187.957 181.685,187.841 181.166,187.418 180.815 C 186.883 180.371,186.800 180.471,186.800 181.555 C 186.800 184.826,182.451 190.176,179.116 191.008 C 178.520 191.157,177.823 191.531,177.567 191.839 C 176.789 192.777,176.011 192.489,173.533 190.342 C 171.919 188.944,171.026 188.414,170.749 188.691 C 170.472 188.968,170.930 189.581,172.176 190.602 C 174.376 192.404,174.190 192.844,170.905 193.602 C 169.637 193.895,168.420 194.261,168.200 194.415 C 167.980 194.569,166.950 194.786,165.911 194.897 C 164.659 195.031,163.180 195.626,161.521 196.663 C 154.213 201.233,154.801 206.628,164.566 224.600 C 176.112 245.851,162.124 266.528,132.800 271.556 C 95.911 277.882,72.011 254.777,77.051 217.663 C 77.276 216.000,77.251 215.945,76.455 216.370 C 75.762 216.742,75.693 216.967,76.043 217.734 C 76.592 218.940,75.976 221.355,75.075 221.529 C 74.617 221.617,74.400 221.392,74.400 220.829 C 74.400 219.780,73.937 219.768,73.293 220.800 C 73.018 221.240,72.615 221.600,72.397 221.600 C 71.863 221.600,71.895 220.558,72.456 219.659 C 72.768 219.160,72.786 218.704,72.514 218.217 C 72.195 217.649,72.059 217.934,71.832 219.643 C 71.676 220.818,71.357 222.011,71.123 222.293 C 70.857 222.613,70.803 223.591,70.980 224.903 C 71.135 226.056,71.337 228.276,71.428 229.834 C 72.475 247.816,88.003 267.122,107.600 274.809 C 111.314 276.266,112.642 276.652,118.800 278.063 C 138.882 282.666,167.776 269.104,172.862 252.689 C 176.093 242.258,175.333 238.876,165.695 220.798 C 159.023 208.285,161.412 201.691,173.446 199.404 C 178.673 198.411,184.118 196.565,185.709 195.247 C 187.169 194.038,187.250 194.979,187.213 212.723 C 187.171 232.818,187.202 232.627,183.861 233.800 C 182.272 234.358,182.567 234.860,185.087 235.885 C 189.752 237.783,192.042 238.444,193.495 238.314 L 195.000 238.179 193.300 237.446 C 191.269 236.570,191.306 236.824,192.951 235.079 C 194.034 233.931,194.359 233.191,194.589 231.352 C 194.876 229.052,194.513 196.903,194.048 183.433 L 193.800 176.265 193.100 178.549 M186.661 178.769 C 185.993 179.012,185.983 179.088,186.556 179.564 C 187.089 180.006,187.231 179.984,187.445 179.428 C 187.768 178.586,187.586 178.433,186.661 178.769 M167.200 185.371 C 167.200 186.058,169.155 187.675,169.630 187.382 C 169.814 187.267,169.407 186.640,168.723 185.987 C 167.304 184.631,167.200 184.588,167.200 185.371 M143.600 191.400 C 143.600 192.378,143.781 192.800,144.200 192.800 C 144.816 192.800,144.988 191.756,144.557 190.633 C 144.132 189.525,143.600 189.951,143.600 191.400 M144.400 193.789 C 144.400 194.167,145.225 195.705,146.233 197.208 C 148.845 201.100,150.083 201.401,148.917 197.859 C 148.391 196.262,148.374 195.795,148.812 194.977 C 149.099 194.440,149.226 193.893,149.094 193.761 C 148.692 193.358,148.000 194.001,148.000 194.777 C 148.000 195.666,146.592 196.113,146.008 195.409 C 145.776 195.130,145.708 194.564,145.857 194.151 C 146.006 193.738,145.980 193.533,145.801 193.697 C 145.621 193.860,145.232 193.793,144.937 193.548 C 144.523 193.204,144.400 193.260,144.400 193.789 M71.693 216.000 C 71.693 216.770,71.775 217.085,71.876 216.700 C 71.976 216.315,71.976 215.685,71.876 215.300 C 71.775 214.915,71.693 215.230,71.693 216.000 " stroke="none" fill="#2c090a" fill-rule="evenodd"></path><path id="path1" d="M0.000 200.000 L 0.000 400.000 200.000 400.000 L 400.000 400.000 400.000 200.000 L 400.000 0.000 200.000 0.000 L 0.000 0.000 0.000 200.000 M138.806 97.838 C 154.696 110.321,157.179 129.176,145.483 148.551 C 143.829 151.292,143.876 151.603,146.119 152.698 C 156.232 157.634,165.029 155.147,176.499 144.112 C 182.032 138.788,185.426 136.201,189.185 134.441 C 200.122 129.322,214.033 142.277,210.938 154.700 C 210.718 155.581,210.785 155.600,214.169 155.600 C 218.566 155.600,219.709 156.094,222.341 159.132 C 225.543 162.828,225.474 162.882,217.400 162.946 L 210.600 163.000 210.573 209.600 C 210.558 235.230,210.410 258.644,210.244 261.631 C 209.383 277.162,215.656 290.276,227.186 297.041 C 237.538 303.116,248.097 301.364,271.526 289.686 C 298.316 276.333,309.859 274.670,326.284 281.796 C 333.003 284.711,329.516 285.908,322.400 283.128 C 312.809 279.382,297.445 282.790,280.600 292.402 C 264.525 301.574,250.716 305.363,239.713 303.621 C 218.889 300.324,205.365 289.101,201.986 272.314 C 201.169 268.257,201.145 267.473,201.464 255.927 C 201.649 249.257,201.710 225.710,201.600 203.600 L 201.400 163.400 198.554 163.284 L 195.708 163.167 195.465 179.684 C 195.332 188.768,195.223 204.238,195.223 214.063 C 195.223 233.265,195.115 234.374,193.101 235.784 C 192.329 236.325,192.354 236.370,193.749 236.953 C 196.163 237.961,195.818 239.385,193.235 239.079 C 188.495 238.517,180.138 234.445,182.300 233.750 C 186.629 232.359,186.400 233.495,186.400 213.373 C 186.400 197.302,186.359 196.320,185.700 196.527 C 185.315 196.648,183.740 197.225,182.200 197.809 C 180.660 198.393,177.240 199.371,174.600 199.984 C 165.528 202.087,162.800 204.251,162.800 209.341 C 162.800 213.716,163.290 214.976,169.898 227.600 C 176.769 240.727,176.833 248.378,170.162 259.082 C 161.380 273.172,136.282 282.527,118.200 278.450 C 117.320 278.252,115.639 277.871,114.465 277.604 C 84.577 270.808,63.671 238.074,71.675 210.600 C 73.030 205.949,75.254 201.751,80.101 194.698 C 82.388 191.370,90.159 183.724,94.829 180.206 C 97.123 178.478,99.720 176.460,100.600 175.722 C 101.480 174.984,106.006 171.549,110.658 168.090 C 137.828 147.885,145.322 137.376,145.380 119.400 C 145.409 110.728,143.826 106.443,138.345 100.347 C 134.362 95.917,134.614 94.544,138.806 97.838 M196.372 140.947 C 194.269 141.514,191.228 143.195,189.200 144.910 C 186.861 146.889,178.800 154.875,178.800 155.213 C 178.800 155.993,198.250 156.341,200.210 155.596 C 202.768 154.624,205.380 145.332,204.019 142.047 C 203.305 140.322,200.294 139.889,196.372 140.947 M140.769 154.884 C 137.972 158.511,134.322 161.717,123.600 169.964 C 116.562 175.378,116.402 175.499,113.400 177.686 C 112.080 178.648,109.200 180.760,107.000 182.381 C 86.151 197.734,76.961 211.914,77.046 228.600 C 77.182 255.482,95.971 273.087,123.200 271.846 C 146.446 270.786,163.080 260.911,167.256 245.690 C 169.238 238.464,168.174 232.803,162.987 222.974 C 156.208 210.129,155.187 207.214,155.975 202.954 C 156.930 197.788,160.414 195.072,168.555 193.149 L 172.266 192.272 168.729 188.684 L 165.191 185.096 162.096 186.210 C 157.138 187.994,153.904 189.780,152.112 191.725 C 149.746 194.291,149.249 196.439,150.227 199.864 C 150.934 202.335,147.372 200.741,145.334 197.673 C 140.314 190.116,143.320 184.356,154.596 179.925 C 156.405 179.214,159.214 177.988,159.520 177.776 C 159.587 177.730,159.090 176.824,158.418 175.763 C 156.287 172.404,154.746 167.810,154.635 164.494 L 154.537 161.533 152.235 160.598 C 149.249 159.384,147.128 157.963,144.347 155.314 L 142.093 153.167 140.769 154.884 M165.600 162.233 C 162.152 163.687,160.598 169.720,162.544 174.100 C 164.292 178.033,170.171 171.455,170.190 165.545 C 170.195 163.852,170.110 162.386,170.000 162.287 C 169.394 161.739,166.845 161.708,165.600 162.233 M176.234 165.620 C 178.319 171.587,177.238 175.285,171.865 180.572 L 168.234 184.145 171.817 187.472 C 176.038 191.392,176.532 191.500,180.251 189.325 C 184.313 186.949,186.434 183.343,185.536 180.343 C 185.164 179.104,185.196 178.666,185.713 177.877 C 186.511 176.659,186.649 163.650,185.866 163.399 C 185.610 163.317,183.120 163.161,180.334 163.053 L 175.268 162.856 176.234 165.620 " stroke="none" fill="#f4f4f4" fill-rule="evenodd"></path><path id="path2" d="M137.042 97.697 C 137.239 98.046,138.126 99.112,139.013 100.066 C 152.997 115.096,146.874 140.357,125.000 157.883 C 123.240 159.293,121.451 160.734,121.024 161.085 C 118.875 162.851,110.326 169.320,104.049 173.927 C 101.646 175.692,97.255 179.082,93.200 182.302 C 84.738 189.024,75.577 200.949,72.997 208.600 C 71.467 213.138,69.855 223.188,70.547 223.880 C 70.686 224.019,70.800 223.754,70.800 223.290 C 70.800 222.827,70.967 222.344,71.172 222.217 C 71.377 222.091,71.670 220.975,71.825 219.738 C 72.050 217.937,72.186 217.632,72.509 218.209 C 72.787 218.705,72.770 219.156,72.456 219.659 C 71.895 220.558,71.863 221.600,72.397 221.600 C 72.615 221.600,73.018 221.240,73.293 220.800 C 73.937 219.768,74.400 219.780,74.400 220.829 C 74.400 221.392,74.617 221.617,75.075 221.529 C 75.976 221.355,76.592 218.940,76.043 217.734 C 75.697 216.974,75.760 216.742,76.412 216.394 C 77.130 216.009,77.203 216.107,77.231 217.486 C 77.259 218.889,77.317 218.809,78.021 216.400 C 81.796 203.478,90.996 193.228,113.800 176.538 C 126.101 167.535,132.585 162.265,137.483 157.288 L 142.365 152.327 145.395 155.196 C 148.136 157.790,153.173 160.800,154.774 160.800 C 155.034 160.800,155.200 161.866,155.200 163.534 C 155.200 166.821,156.161 169.958,158.588 174.598 C 160.614 178.473,160.734 178.201,156.200 179.998 C 152.148 181.603,149.162 183.215,149.433 183.653 C 149.547 183.839,149.407 183.903,149.121 183.796 C 147.567 183.213,143.200 188.700,143.200 191.235 C 143.200 192.632,145.136 196.733,146.639 198.519 C 148.087 200.240,147.796 199.477,146.000 196.847 C 144.419 194.531,143.798 192.602,144.937 193.548 C 145.232 193.793,145.621 193.860,145.801 193.697 C 145.980 193.533,146.006 193.738,145.857 194.151 C 145.708 194.564,145.776 195.130,146.008 195.409 C 146.592 196.113,148.000 195.666,148.000 194.777 C 148.000 193.985,148.695 193.361,149.111 193.778 C 149.254 193.920,149.152 194.386,148.885 194.813 C 148.315 195.725,148.237 196.948,148.769 196.619 C 148.972 196.494,149.265 195.808,149.419 195.095 C 150.221 191.391,154.395 188.267,162.312 185.446 L 165.223 184.409 169.012 188.160 C 172.795 191.907,173.241 192.555,172.300 192.935 C 171.982 193.064,172.036 193.148,172.451 193.168 C 174.149 193.251,174.028 192.119,172.176 190.602 C 170.930 189.581,170.472 188.968,170.749 188.691 C 171.026 188.414,171.919 188.944,173.533 190.342 C 176.074 192.544,176.785 192.784,177.651 191.735 C 178.150 191.129,178.116 191.114,177.273 191.563 C 176.077 192.200,175.555 191.860,170.835 187.368 C 166.681 183.415,166.781 183.619,168.500 182.609 C 177.038 177.592,178.976 168.374,172.988 161.259 C 171.367 159.333,171.986 159.065,173.986 160.827 L 175.771 162.400 181.006 162.400 C 184.543 162.400,186.396 162.556,186.720 162.880 C 187.539 163.699,187.377 176.770,186.532 177.975 C 185.886 178.898,185.892 178.921,186.732 178.702 C 187.278 178.559,187.600 178.659,187.600 178.971 C 187.600 179.743,187.122 180.034,186.585 179.587 C 186.207 179.274,186.143 179.616,186.301 181.091 C 186.557 183.468,186.800 183.822,186.800 181.818 C 186.800 180.496,186.879 180.368,187.418 180.815 C 187.841 181.166,187.957 181.685,187.786 182.463 C 187.591 183.353,187.662 183.551,188.117 183.377 C 188.730 183.141,189.363 184.213,188.978 184.836 C 188.723 185.247,190.007 185.326,190.967 184.957 C 191.315 184.824,191.600 184.374,191.600 183.957 C 191.600 183.541,191.780 183.200,192.000 183.200 C 192.220 183.200,192.405 182.615,192.411 181.900 C 192.417 181.185,192.748 179.620,193.145 178.421 L 193.868 176.243 194.134 184.786 C 194.280 189.485,194.443 197.305,194.495 202.164 C 194.548 207.024,194.683 200.110,194.795 186.800 L 195.000 162.600 198.138 162.482 C 202.659 162.313,202.384 161.640,202.493 173.149 L 202.585 183.000 202.700 173.300 C 202.795 165.231,202.910 163.600,203.384 163.600 C 204.291 163.600,204.542 164.408,203.803 164.948 C 203.208 165.383,203.186 165.656,203.618 167.221 C 204.105 168.988,204.111 168.993,204.488 167.900 C 204.716 167.237,205.158 166.800,205.601 166.800 C 207.126 166.800,207.447 166.415,207.359 164.692 C 207.254 162.617,207.679 161.767,208.989 161.438 C 209.545 161.299,210.000 160.930,210.000 160.619 C 210.000 160.308,210.360 159.940,210.800 159.800 C 211.593 159.548,211.927 158.800,211.247 158.800 C 211.052 158.800,210.805 158.461,210.697 158.048 C 210.485 157.240,211.862 156.893,215.956 156.723 C 216.970 156.681,216.090 156.546,214.000 156.423 C 210.230 156.202,210.201 156.192,210.324 155.200 C 211.769 143.554,204.813 134.155,194.800 134.227 C 188.851 134.270,186.265 135.783,177.400 144.410 C 165.592 155.900,156.642 158.374,145.729 153.166 C 142.723 151.732,142.702 151.598,144.946 148.112 C 154.047 133.978,154.491 118.770,146.151 106.861 C 143.499 103.074,135.578 95.106,137.042 97.697 M204.250 141.020 C 205.983 143.665,204.860 150.444,202.000 154.599 C 201.272 155.658,200.884 156.395,201.138 156.238 C 201.392 156.081,201.600 156.163,201.600 156.419 C 201.600 156.680,201.321 156.779,200.967 156.643 C 200.619 156.509,195.039 156.400,188.567 156.400 C 178.682 156.400,176.800 156.309,176.800 155.833 C 176.800 155.522,176.967 155.207,177.172 155.133 C 177.376 155.060,179.145 153.470,181.102 151.600 C 189.549 143.529,191.370 142.084,194.763 140.756 C 197.846 139.550,203.388 139.704,204.250 141.020 M209.839 154.642 C 209.593 155.283,208.000 155.409,208.000 154.787 C 208.000 154.561,208.270 154.271,208.600 154.145 C 208.930 154.018,209.200 153.588,209.200 153.190 C 209.200 152.791,209.335 152.136,209.500 151.733 C 209.857 150.860,210.191 153.724,209.839 154.642 M207.200 161.200 C 207.600 161.458,207.633 161.590,207.300 161.594 C 207.025 161.597,206.800 161.870,206.800 162.200 C 206.800 162.530,206.530 162.800,206.200 162.800 C 205.827 162.800,205.600 162.422,205.600 161.800 C 205.600 160.757,206.179 160.540,207.200 161.200 M170.171 161.828 C 173.308 164.965,167.914 176.385,163.290 176.399 C 162.470 176.401,160.796 171.205,160.804 168.680 C 160.819 163.718,167.311 158.968,170.171 161.828 M209.700 162.265 C 209.413 162.381,209.222 163.090,209.253 163.933 L 209.305 165.400 209.553 164.000 L 209.800 162.600 215.400 162.383 L 221.000 162.165 215.600 162.114 C 212.630 162.086,209.975 162.154,209.700 162.265 M185.600 184.690 C 185.600 185.523,181.855 189.260,180.044 190.232 C 179.030 190.777,178.650 191.107,179.200 190.965 C 181.478 190.377,186.656 185.322,185.828 184.494 C 185.702 184.369,185.600 184.457,185.600 184.690 M168.723 185.987 C 169.407 186.640,169.814 187.267,169.630 187.382 C 169.155 187.675,167.200 186.058,167.200 185.371 C 167.200 184.588,167.304 184.631,168.723 185.987 M144.557 190.633 C 144.988 191.756,144.816 192.800,144.200 192.800 C 143.781 192.800,143.600 192.378,143.600 191.400 C 143.600 189.951,144.132 189.525,144.557 190.633 M166.800 194.200 L 165.000 194.721 166.420 194.761 C 167.201 194.782,168.011 194.635,168.220 194.434 C 168.429 194.232,169.050 193.987,169.600 193.888 L 170.600 193.709 169.600 193.694 C 169.050 193.685,167.790 193.913,166.800 194.200 M164.575 203.300 L 163.400 204.600 164.700 203.425 C 165.912 202.330,166.184 202.000,165.875 202.000 C 165.806 202.000,165.221 202.585,164.575 203.300 M156.509 204.800 C 156.509 205.790,156.587 206.195,156.682 205.700 C 156.778 205.205,156.778 204.395,156.682 203.900 C 156.587 203.405,156.509 203.810,156.509 204.800 M162.128 209.600 C 162.128 211.030,162.201 211.615,162.289 210.900 C 162.378 210.185,162.378 209.015,162.289 208.300 C 162.201 207.585,162.128 208.170,162.128 209.600 M71.876 216.700 C 71.775 217.085,71.693 216.770,71.693 216.000 C 71.693 215.230,71.775 214.915,71.876 215.300 C 71.976 215.685,71.976 216.315,71.876 216.700 M76.648 219.820 C 76.517 220.162,76.329 222.997,76.231 226.120 L 76.053 231.800 76.379 227.173 C 76.558 224.629,76.832 221.794,76.988 220.873 C 77.271 219.198,77.095 218.654,76.648 219.820 M70.828 227.033 C 70.844 228.115,71.018 229.360,71.216 229.800 C 71.448 230.316,71.491 229.676,71.335 228.000 C 71.042 224.839,70.790 224.358,70.828 227.033 " stroke="none" fill="#af1214" fill-rule="evenodd"></path><path id="path3" d="M135.600 96.647 C 135.600 97.003,136.835 98.668,138.345 100.347 C 143.826 106.443,145.409 110.728,145.380 119.400 C 145.322 137.376,137.828 147.885,110.658 168.090 C 106.006 171.549,101.480 174.984,100.600 175.722 C 99.720 176.460,97.123 178.478,94.829 180.206 C 90.159 183.724,82.388 191.370,80.101 194.698 C 75.478 201.426,73.075 205.866,71.822 210.000 C 70.614 213.983,70.000 218.534,70.067 223.000 L 70.134 227.400 70.440 221.800 C 70.609 218.720,70.952 215.390,71.202 214.400 C 71.453 213.410,71.755 212.013,71.873 211.296 C 71.992 210.579,72.249 209.894,72.444 209.773 C 72.640 209.652,72.800 209.301,72.800 208.994 C 72.800 207.363,78.316 197.660,81.200 194.217 C 86.980 187.319,91.962 182.930,105.078 173.182 C 109.875 169.617,114.000 166.452,114.244 166.150 C 114.488 165.847,114.809 165.600,114.956 165.600 C 115.178 165.600,118.722 162.954,121.162 160.966 C 121.513 160.680,123.240 159.293,125.000 157.883 C 138.937 146.717,146.400 133.189,146.400 119.093 C 146.400 111.251,144.272 106.105,138.500 99.986 C 136.076 97.416,135.332 96.058,136.621 96.553 C 136.977 96.689,137.137 96.622,136.997 96.395 C 136.604 95.760,135.600 95.941,135.600 96.647 M140.918 100.476 C 154.386 114.640,155.792 131.268,144.946 148.112 C 142.705 151.594,142.720 151.685,145.768 153.155 C 156.614 158.386,165.586 155.906,177.400 144.410 C 184.045 137.944,188.894 134.400,191.096 134.400 C 191.452 134.400,192.341 134.184,193.071 133.920 C 195.797 132.934,200.931 134.713,204.398 137.846 C 205.223 138.591,206.051 139.200,206.240 139.200 C 207.030 139.200,202.626 135.642,200.504 134.568 C 193.775 131.158,187.276 133.742,176.499 144.112 C 165.029 155.147,156.232 157.634,146.119 152.698 C 143.876 151.603,143.829 151.292,145.483 148.551 C 156.650 130.052,155.294 114.107,141.369 100.182 C 137.352 96.164,137.022 96.379,140.918 100.476 M207.976 141.878 C 208.869 143.241,209.600 144.606,209.600 144.911 C 209.600 145.217,209.735 145.601,209.900 145.766 C 210.065 145.931,210.406 146.726,210.658 147.533 C 210.910 148.340,211.135 148.687,211.158 148.304 C 211.237 146.993,209.141 142.466,207.746 140.932 L 206.351 139.400 207.976 141.878 M194.000 141.250 C 192.570 141.932,191.340 142.649,191.267 142.845 C 191.193 143.040,190.923 143.200,190.667 143.200 C 190.067 143.201,188.924 144.188,182.652 150.126 C 179.820 152.807,177.345 155.060,177.152 155.133 C 176.958 155.207,176.800 155.522,176.800 155.833 C 176.800 156.302,178.110 156.400,184.400 156.400 C 188.580 156.400,192.000 156.265,192.000 156.100 C 192.000 155.935,189.705 155.843,186.900 155.895 C 181.606 155.994,178.800 155.757,178.800 155.213 C 178.800 154.829,187.113 146.638,189.519 144.651 C 193.776 141.135,202.249 139.060,203.607 141.200 C 203.816 141.530,203.991 141.611,203.994 141.380 C 204.022 139.479,197.883 139.399,194.000 141.250 M204.200 145.562 C 204.200 149.699,202.098 154.879,200.112 155.634 C 199.549 155.847,199.207 156.140,199.351 156.284 C 200.199 157.132,202.710 153.929,204.031 150.316 C 204.802 148.206,205.126 142.646,204.500 142.264 C 204.335 142.163,204.200 143.647,204.200 145.562 M211.309 150.800 C 211.309 151.790,211.387 152.195,211.482 151.700 C 211.578 151.205,211.578 150.395,211.482 149.900 C 211.387 149.405,211.309 149.810,211.309 150.800 M137.906 156.901 C 135.544 159.376,132.394 162.343,130.906 163.496 C 129.418 164.649,127.720 165.999,127.134 166.496 C 125.016 168.291,124.535 168.662,120.256 171.807 C 98.308 187.937,92.213 193.132,86.944 200.200 C 85.960 201.520,84.895 202.917,84.578 203.305 C 84.260 203.692,84.000 204.114,84.000 204.243 C 84.000 204.371,83.618 205.013,83.151 205.669 C 82.261 206.918,79.999 211.400,80.002 211.906 C 80.003 212.068,81.005 210.380,82.228 208.156 C 84.842 203.406,87.410 200.083,92.531 194.830 C 97.956 189.266,101.478 186.373,113.400 177.686 C 116.402 175.499,116.562 175.378,123.600 169.964 C 134.322 161.717,137.972 158.511,140.769 154.884 L 142.093 153.167 144.347 155.314 C 147.128 157.963,149.249 159.384,152.235 160.598 L 154.537 161.533 154.635 164.494 C 154.746 167.810,156.287 172.404,158.418 175.763 C 159.090 176.824,159.587 177.730,159.520 177.776 C 159.226 177.980,156.425 179.207,154.600 179.932 C 152.565 180.740,148.800 182.744,148.800 183.020 C 148.800 183.190,151.335 182.100,153.881 180.835 C 154.805 180.376,155.716 180.000,155.906 180.000 C 156.095 180.000,157.188 179.547,158.335 178.994 L 160.419 177.989 159.345 176.094 C 156.198 170.545,155.200 167.502,155.200 163.454 C 155.200 161.842,155.033 160.800,154.774 160.800 C 153.185 160.800,148.137 157.791,145.434 155.232 C 141.837 151.828,142.993 151.572,137.906 156.901 M210.491 154.402 C 209.987 156.386,209.822 156.319,214.400 155.997 L 218.200 155.729 214.482 155.665 L 210.764 155.600 211.026 154.200 C 211.386 152.281,210.991 152.430,210.491 154.402 M220.800 157.800 C 221.546 158.570,222.247 159.200,222.357 159.200 C 222.467 159.200,221.946 158.570,221.200 157.800 C 220.454 157.030,219.753 156.400,219.643 156.400 C 219.533 156.400,220.054 157.030,220.800 157.800 M172.000 159.554 C 172.000 159.825,172.523 160.711,173.162 161.523 C 178.253 167.989,177.972 173.896,172.299 179.669 C 170.924 181.068,169.260 182.473,168.600 182.793 C 167.940 183.112,167.329 183.421,167.242 183.478 C 167.067 183.594,171.693 187.938,174.386 190.189 C 175.640 191.236,176.330 191.553,176.951 191.366 C 178.453 190.913,178.422 190.577,176.890 190.711 C 175.507 190.832,175.142 190.600,171.817 187.493 L 168.234 184.145 171.865 180.572 C 177.238 175.285,178.319 171.587,176.234 165.620 L 175.268 162.856 180.334 163.053 C 183.120 163.161,185.610 163.317,185.866 163.399 C 186.480 163.596,186.532 176.759,185.922 177.494 C 185.628 177.848,185.630 178.000,185.927 178.000 C 186.670 178.000,186.727 177.532,186.847 170.390 C 186.993 161.698,187.503 162.400,181.052 162.400 C 175.305 162.400,175.977 162.609,172.900 159.864 C 172.354 159.377,172.000 159.255,172.000 159.554 M165.208 161.646 C 161.409 163.162,160.028 167.754,161.741 173.180 C 162.864 176.739,163.103 176.864,165.568 175.182 C 173.176 169.991,172.873 158.588,165.208 161.646 M170.000 162.287 C 172.346 164.406,167.145 175.600,163.814 175.600 C 161.656 175.600,161.044 167.264,163.000 164.512 C 164.685 162.141,168.497 160.929,170.000 162.287 M195.082 162.652 C 194.730 163.003,194.792 172.121,195.180 177.200 C 195.418 180.312,195.482 179.385,195.535 172.082 L 195.600 163.165 198.500 163.282 L 201.400 163.400 201.609 179.800 L 201.818 196.200 201.809 179.400 L 201.800 162.600 198.582 162.485 C 196.811 162.422,195.236 162.497,195.082 162.652 M210.267 162.667 C 210.120 162.813,210.036 165.108,210.080 167.767 L 210.161 172.600 210.380 167.800 L 210.600 163.000 215.600 162.781 L 220.600 162.562 215.567 162.481 C 212.798 162.436,210.413 162.520,210.267 162.667 M185.455 179.600 C 185.607 180.370,185.719 181.630,185.704 182.400 C 185.680 183.673,185.716 183.719,186.098 182.904 C 186.415 182.229,186.353 181.537,185.849 180.104 C 185.344 178.670,185.247 178.546,185.455 179.600 M145.568 185.568 C 144.266 186.870,143.209 188.175,143.221 188.468 C 143.233 188.761,143.548 188.553,143.921 188.006 C 144.294 187.459,145.494 186.154,146.587 185.106 C 147.681 184.058,148.431 183.200,148.255 183.200 C 148.080 183.200,146.870 184.266,145.568 185.568 M184.304 185.644 C 183.701 186.500,183.341 187.198,183.504 187.195 C 183.835 187.190,185.731 184.391,185.529 184.206 C 185.458 184.141,184.907 184.788,184.304 185.644 M163.565 185.081 C 162.063 185.747,161.624 185.926,158.400 187.174 C 157.190 187.643,155.750 188.390,155.200 188.834 C 154.466 189.428,154.837 189.334,156.600 188.483 C 157.920 187.845,160.408 186.817,162.130 186.197 L 165.259 185.071 167.177 187.136 C 168.232 188.271,169.236 189.200,169.408 189.200 C 169.772 189.200,166.012 185.004,165.365 184.688 C 165.125 184.571,164.315 184.747,163.565 185.081 M180.400 189.218 C 179.410 189.860,178.739 190.388,178.908 190.392 C 179.303 190.402,182.400 188.453,182.400 188.195 C 182.400 187.922,182.402 187.921,180.400 189.218 M142.729 190.305 C 142.639 190.913,142.682 191.858,142.823 192.405 C 142.999 193.087,143.092 192.740,143.117 191.300 C 143.158 189.009,142.984 188.564,142.729 190.305 M152.628 190.450 C 151.108 191.645,149.766 193.919,149.471 195.800 C 149.241 197.260,149.284 197.213,149.967 195.259 C 150.430 193.932,151.371 192.449,152.440 191.359 C 154.294 189.470,154.375 189.075,152.628 190.450 M171.342 191.363 L 172.483 192.297 169.847 192.821 C 168.397 193.109,167.294 193.428,167.396 193.529 C 167.577 193.710,172.438 192.813,172.768 192.537 C 173.036 192.314,171.107 190.398,170.630 190.414 C 170.394 190.422,170.714 190.849,171.342 191.363 M143.660 194.801 C 143.890 195.461,144.241 196.102,144.439 196.224 C 144.939 196.533,144.896 196.315,144.171 194.861 C 143.375 193.266,143.114 193.235,143.660 194.801 M165.200 194.000 C 164.376 194.264,164.341 194.326,165.000 194.354 C 165.440 194.373,166.070 194.213,166.400 194.000 C 167.101 193.547,166.614 193.547,165.200 194.000 M159.636 196.809 C 158.516 197.694,157.600 198.526,157.600 198.657 C 157.600 198.789,158.365 198.275,159.300 197.515 C 160.235 196.755,161.360 195.929,161.800 195.679 C 162.240 195.429,162.391 195.219,162.136 195.212 C 161.881 195.205,160.756 195.924,159.636 196.809 M185.376 196.180 C 184.624 196.742,184.627 196.753,185.482 196.538 C 186.328 196.325,186.371 196.446,186.502 199.458 L 186.639 202.600 186.720 199.100 C 186.803 195.474,186.680 195.206,185.376 196.180 M201.775 210.600 C 201.775 216.540,201.831 219.026,201.899 216.124 C 201.967 213.222,201.967 208.362,201.899 205.324 C 201.831 202.286,201.775 204.660,201.775 210.600 M162.520 209.600 C 162.520 210.810,162.595 211.305,162.687 210.700 C 162.778 210.095,162.778 209.105,162.687 208.500 C 162.595 207.895,162.520 208.390,162.520 209.600 M195.293 208.800 C 195.293 209.570,195.375 209.885,195.476 209.500 C 195.576 209.115,195.576 208.485,195.476 208.100 C 195.375 207.715,195.293 208.030,195.293 208.800 M79.429 212.843 C 78.235 216.342,77.610 218.714,77.654 219.566 L 77.709 220.600 77.887 219.600 C 77.985 219.050,78.498 217.263,79.027 215.628 C 79.556 213.993,79.906 212.572,79.804 212.471 C 79.702 212.369,79.533 212.536,79.429 212.843 M77.056 221.684 C 76.921 222.188,76.833 223.410,76.860 224.400 C 76.903 225.974,76.947 225.873,77.209 223.600 C 77.524 220.866,77.467 220.150,77.056 221.684 M210.570 231.400 C 210.571 236.240,210.629 238.165,210.699 235.678 C 210.769 233.191,210.769 229.231,210.698 226.878 C 210.628 224.525,210.570 226.560,210.570 231.400 M76.914 232.600 C 76.917 233.700,76.995 234.103,77.087 233.495 C 77.179 232.886,77.177 231.986,77.082 231.495 C 76.987 231.003,76.911 231.500,76.914 232.600 M71.256 234.400 C 71.256 234.730,71.411 235.360,71.600 235.800 C 71.817 236.304,71.944 236.378,71.944 236.000 C 71.944 235.670,71.789 235.040,71.600 234.600 C 71.383 234.096,71.256 234.022,71.256 234.400 M168.114 238.600 C 168.117 239.700,168.195 240.103,168.287 239.495 C 168.379 238.886,168.377 237.986,168.282 237.495 C 168.187 237.003,168.111 237.500,168.114 238.600 M201.728 240.800 C 201.728 242.230,201.801 242.815,201.889 242.100 C 201.978 241.385,201.978 240.215,201.889 239.500 C 201.801 238.785,201.728 239.370,201.728 240.800 M174.920 243.200 C 174.920 244.410,174.995 244.905,175.087 244.300 C 175.178 243.695,175.178 242.705,175.087 242.100 C 174.995 241.495,174.920 241.990,174.920 243.200 M201.731 247.400 C 201.733 248.940,201.805 249.521,201.892 248.691 C 201.979 247.861,201.977 246.601,201.889 245.891 C 201.800 245.181,201.729 245.860,201.731 247.400 M201.293 268.000 C 201.293 268.770,201.375 269.085,201.476 268.700 C 201.576 268.315,201.576 267.685,201.476 267.300 C 201.375 266.915,201.293 267.230,201.293 268.000 M128.500 279.476 C 128.885 279.576,129.515 279.576,129.900 279.476 C 130.285 279.375,129.970 279.293,129.200 279.293 C 128.430 279.293,128.115 279.375,128.500 279.476 " stroke="none" fill="#e69495" fill-rule="evenodd"></path><path id="path4" d="M136.000 96.915 C 136.000 97.198,136.937 98.323,138.082 99.415 L 140.164 101.400 138.482 99.509 C 135.799 96.492,136.338 96.520,139.819 99.578 C 140.709 100.360,140.393 99.965,139.116 98.700 C 136.795 96.401,136.000 95.946,136.000 96.915 M193.900 133.882 C 194.395 133.978,195.205 133.978,195.700 133.882 C 196.195 133.787,195.790 133.709,194.800 133.709 C 193.810 133.709,193.405 133.787,193.900 133.882 M203.834 141.100 C 204.454 142.390,204.800 142.728,204.800 142.044 C 204.800 141.849,204.442 141.264,204.004 140.744 L 203.208 139.800 203.834 141.100 M204.893 145.600 C 204.893 146.370,204.975 146.685,205.076 146.300 C 205.176 145.915,205.176 145.285,205.076 144.900 C 204.975 144.515,204.893 144.830,204.893 145.600 M210.600 150.800 C 210.600 152.544,210.722 153.662,210.872 153.285 C 211.021 152.908,211.144 151.790,211.144 150.800 C 211.144 149.810,211.021 148.692,210.872 148.315 C 210.722 147.938,210.600 149.056,210.600 150.800 M193.700 156.294 C 194.745 156.376,196.455 156.376,197.500 156.294 C 198.545 156.212,197.690 156.144,195.600 156.144 C 193.510 156.144,192.655 156.212,193.700 156.294 M215.304 156.413 C 217.452 156.576,219.440 156.865,219.723 157.055 C 220.006 157.245,219.894 157.085,219.475 156.700 C 218.853 156.130,218.035 156.011,215.056 156.058 L 211.400 156.116 215.304 156.413 M222.954 160.986 C 223.833 162.327,223.828 162.333,221.900 162.507 L 220.200 162.660 222.076 162.730 C 224.286 162.812,224.709 162.372,223.721 161.016 C 222.783 159.726,222.111 159.700,222.954 160.986 M209.837 162.741 C 209.525 163.245,209.903 271.562,210.222 273.200 C 213.269 288.830,225.797 300.817,239.062 300.793 C 248.601 300.775,255.304 298.565,273.000 289.604 C 293.618 279.163,302.995 276.778,314.800 278.974 C 320.508 280.035,328.781 282.942,329.137 284.011 C 329.421 284.863,325.917 284.026,320.911 282.046 C 316.906 280.463,309.602 280.558,303.200 282.278 C 301.990 282.603,300.460 283.011,299.800 283.183 C 298.737 283.461,296.618 284.223,294.200 285.196 C 290.958 286.502,286.575 288.633,276.400 293.854 C 270.322 296.972,268.147 298.003,264.200 299.636 C 254.438 303.674,243.917 304.494,234.200 301.974 C 228.933 300.609,228.686 300.534,226.400 299.618 C 215.278 295.162,206.463 286.174,203.629 276.400 C 203.342 275.410,202.957 274.150,202.773 273.600 C 201.957 271.153,201.564 263.747,201.980 258.642 C 202.384 253.677,202.616 162.850,202.223 163.243 C 202.045 163.422,201.392 256.391,201.505 265.600 C 201.734 284.205,213.631 297.568,234.400 302.546 C 248.076 305.824,259.029 303.709,276.670 294.386 C 296.702 283.799,302.220 281.893,313.000 281.840 C 319.350 281.809,319.425 281.819,322.600 283.122 C 328.716 285.633,333.055 284.855,327.300 282.280 C 319.795 278.922,316.388 278.228,307.400 278.230 C 296.077 278.233,292.083 279.508,271.800 289.595 C 246.468 302.193,235.925 303.487,224.600 295.388 C 220.599 292.527,216.127 287.222,214.247 283.107 C 210.061 273.944,210.370 279.175,210.332 216.901 C 210.313 186.925,210.241 162.400,210.172 162.400 C 210.104 162.400,209.952 162.553,209.837 162.741 M186.960 171.400 C 186.961 174.700,187.022 175.997,187.098 174.282 C 187.173 172.567,187.172 169.867,187.097 168.282 C 187.021 166.697,186.959 168.100,186.960 171.400 M194.893 202.200 C 194.837 217.600,194.699 230.920,194.585 231.800 C 194.412 233.143,194.446 233.248,194.792 232.458 C 195.067 231.832,195.170 221.917,195.100 202.858 L 194.995 174.200 194.893 202.200 M186.100 177.865 C 185.500 178.107,185.453 179.565,186.018 180.400 C 186.319 180.845,186.358 180.714,186.167 179.895 C 186.015 179.239,186.111 178.548,186.404 178.195 C 186.925 177.568,186.901 177.542,186.100 177.865 M171.578 180.300 L 170.200 181.800 171.700 180.422 C 172.525 179.663,173.200 178.988,173.200 178.922 C 173.200 178.616,172.862 178.904,171.578 180.300 M148.944 183.169 C 148.253 183.590,147.565 184.133,147.416 184.374 C 147.192 184.737,149.775 183.158,150.356 182.577 C 150.747 182.187,150.133 182.444,148.944 183.169 M171.543 187.935 C 175.382 191.701,176.136 192.202,177.078 191.613 C 177.726 191.208,177.711 191.186,176.933 191.397 C 176.022 191.645,175.224 191.079,170.776 187.026 C 169.552 185.912,169.897 186.321,171.543 187.935 M181.218 189.050 C 179.336 190.386,179.171 190.618,180.629 189.877 C 181.305 189.534,182.092 188.971,182.378 188.626 C 183.060 187.805,182.877 187.872,181.218 189.050 M170.422 189.900 C 170.434 190.065,171.019 190.638,171.722 191.174 L 173.000 192.149 171.825 190.874 C 170.603 189.549,170.385 189.397,170.422 189.900 M170.000 193.200 C 169.196 193.457,169.157 193.523,169.800 193.532 C 170.240 193.538,170.960 193.389,171.400 193.200 C 172.419 192.762,171.368 192.762,170.000 193.200 M166.400 194.018 C 165.962 194.315,166.124 194.352,167.000 194.156 C 168.471 193.827,168.790 193.598,167.767 193.606 C 167.345 193.609,166.730 193.795,166.400 194.018 M161.344 195.969 C 160.653 196.390,159.945 196.965,159.771 197.246 C 159.598 197.527,159.983 197.389,160.628 196.940 C 161.272 196.490,162.160 195.920,162.600 195.673 C 163.040 195.426,163.220 195.220,163.000 195.214 C 162.780 195.208,162.035 195.548,161.344 195.969 M185.816 195.574 C 185.665 195.818,185.798 195.899,186.135 195.770 C 186.633 195.579,186.685 197.953,186.520 213.274 C 186.306 233.172,186.398 232.582,183.357 233.435 C 180.563 234.219,181.164 234.879,186.573 236.966 C 192.306 239.178,195.200 239.725,195.200 238.596 C 195.200 237.766,194.099 236.831,193.100 236.813 C 192.147 236.795,192.230 236.374,193.407 235.258 C 193.953 234.740,194.400 234.142,194.400 233.930 C 194.400 233.717,193.770 234.211,193.000 235.027 C 191.299 236.832,191.266 236.569,193.300 237.446 L 195.000 238.179 193.495 238.314 C 192.027 238.446,189.757 237.785,184.931 235.822 C 182.282 234.744,182.079 234.368,183.839 233.799 C 187.222 232.706,187.255 232.489,187.117 212.433 C 187.004 195.995,186.843 193.913,185.816 195.574 M148.827 196.603 C 148.812 196.824,148.975 197.615,149.188 198.360 C 149.667 200.029,149.401 200.536,148.341 199.969 C 147.896 199.730,147.457 199.609,147.366 199.700 C 147.037 200.030,149.162 200.900,149.747 200.676 C 150.239 200.487,150.270 200.206,149.918 199.123 C 149.252 197.074,148.857 196.161,148.827 196.603 M158.316 198.298 C 157.979 198.684,157.490 199.450,157.229 200.000 C 156.777 200.955,156.784 200.964,157.386 200.200 C 157.732 199.760,158.295 199.068,158.636 198.662 C 159.435 197.713,159.129 197.365,158.316 198.298 M180.000 198.000 C 179.467 198.345,179.467 198.388,180.000 198.388 C 180.330 198.388,180.870 198.213,181.200 198.000 C 181.733 197.655,181.733 197.612,181.200 197.612 C 180.870 197.612,180.330 197.787,180.000 198.000 M176.500 198.841 C 172.784 199.868,172.461 200.002,174.200 199.801 C 176.086 199.582,179.763 198.479,178.600 198.480 C 178.160 198.481,177.215 198.643,176.500 198.841 M170.200 200.400 C 169.181 200.838,170.232 200.838,171.600 200.400 C 172.404 200.143,172.443 200.077,171.800 200.068 C 171.360 200.062,170.640 200.211,170.200 200.400 M167.126 201.614 C 164.867 202.807,164.932 203.255,167.201 202.125 C 169.068 201.194,169.612 200.776,168.900 200.818 C 168.735 200.827,167.937 201.186,167.126 201.614 M156.252 202.100 C 155.929 203.305,155.986 206.821,156.342 207.726 C 156.500 208.125,156.629 206.820,156.629 204.826 C 156.629 200.888,156.611 200.761,156.252 202.100 M163.913 204.300 C 163.082 205.253,162.393 206.636,162.433 207.274 C 162.451 207.563,162.737 207.170,163.069 206.400 C 163.402 205.630,163.955 204.685,164.299 204.300 C 164.643 203.915,164.834 203.600,164.724 203.600 C 164.614 203.600,164.249 203.915,163.913 204.300 M156.827 209.652 C 156.795 210.428,158.802 214.931,159.064 214.670 C 159.164 214.570,158.900 213.703,158.478 212.744 C 158.055 211.785,157.517 210.550,157.282 210.000 C 157.011 209.367,156.844 209.239,156.827 209.652 M162.446 212.400 C 162.427 212.950,162.587 213.670,162.800 214.000 C 163.294 214.764,163.294 213.942,162.800 212.400 L 162.480 211.400 162.446 212.400 M159.200 215.440 C 159.200 215.660,159.362 216.011,159.559 216.220 C 160.177 216.874,166.243 228.890,167.122 231.200 C 167.582 232.410,167.968 233.107,167.979 232.749 C 168.007 231.885,167.143 229.838,164.711 225.000 C 160.902 217.423,159.200 214.470,159.200 215.440 M70.509 219.200 C 70.509 220.190,70.587 220.595,70.682 220.100 C 70.778 219.605,70.778 218.795,70.682 218.300 C 70.587 217.805,70.509 218.210,70.509 219.200 M77.249 219.400 C 77.216 219.840,77.096 220.650,76.983 221.200 L 76.777 222.200 77.206 221.219 C 77.442 220.679,77.561 219.869,77.472 219.419 C 77.313 218.621,77.307 218.621,77.249 219.400 M165.600 220.568 C 165.600 220.660,166.229 221.875,166.997 223.268 C 174.956 237.691,175.955 242.704,172.862 252.689 C 169.266 264.295,154.730 274.524,136.800 278.066 C 133.425 278.732,121.712 278.731,118.800 278.063 C 112.642 276.652,111.314 276.266,107.600 274.809 C 94.266 269.579,83.057 259.473,76.313 246.602 C 75.275 244.621,74.422 243.180,74.418 243.400 C 74.414 243.620,75.135 245.220,76.022 246.956 C 86.351 267.187,107.581 279.861,129.845 279.088 C 157.663 278.123,179.422 257.825,174.250 237.668 C 173.328 234.075,165.600 218.798,165.600 220.568 M70.528 226.400 C 70.528 227.830,70.601 228.415,70.689 227.700 C 70.778 226.985,70.778 225.815,70.689 225.100 C 70.601 224.385,70.528 224.970,70.528 226.400 M76.551 228.800 C 76.551 231.330,76.616 232.365,76.696 231.100 C 76.775 229.835,76.775 227.765,76.696 226.500 C 76.616 225.235,76.551 226.270,76.551 228.800 M71.228 232.833 C 71.244 233.365,71.419 234.160,71.619 234.600 C 71.871 235.158,71.907 234.915,71.738 233.800 C 71.455 231.943,71.187 231.436,71.228 232.833 M168.117 238.433 C 168.031 255.281,154.356 267.555,131.600 271.211 C 107.930 275.013,87.836 265.497,80.502 247.013 C 79.932 245.576,79.382 244.484,79.281 244.586 C 78.694 245.173,82.451 252.621,85.280 256.479 C 104.963 283.320,161.698 274.787,168.247 244.000 C 168.833 241.247,168.948 235.520,168.443 234.233 C 168.278 233.812,168.131 235.702,168.117 238.433 M76.875 235.600 C 76.865 236.370,77.011 237.360,77.200 237.800 C 77.657 238.864,77.657 237.197,77.200 235.400 L 76.895 234.200 76.875 235.600 M72.034 236.600 C 72.022 237.040,72.187 237.670,72.400 238.000 C 72.914 238.795,72.914 237.796,72.400 236.600 L 72.056 235.800 72.034 236.600 M72.812 239.200 C 72.812 239.530,72.987 240.070,73.200 240.400 C 73.545 240.933,73.588 240.933,73.588 240.400 C 73.588 240.070,73.413 239.530,73.200 239.200 C 72.855 238.667,72.812 238.667,72.812 239.200 M77.600 239.625 C 77.600 240.338,78.891 244.043,79.075 243.859 C 79.275 243.658,78.028 239.200,77.772 239.200 C 77.677 239.200,77.600 239.391,77.600 239.625 " stroke="none" fill="#9b9796" fill-rule="evenodd"></path></g></svg>